# xmcd
#
# Track frame offsets: 
#        150
#        18216
#        44401
#        57171
#        74967
#        96247
#        111077
#        128869
#        140615
#        156381
#
# Disc length: 2334 seconds
#
# Revision: 0
# Processed by: cddbd v1.5.2PL0 Copyright (c) Steve Scherf et al.
# Submitted via: ExactAudioCopy v1.3
#
DISCID=94091c0a
DTITLE=Tomislav Goluban - Memphis Light
DYEAR=2020
DGENRE=Blues
TTITLE0=Hayloft Blues
TTITLE1=Fun Starts Here
TTITLE2=Country Bag
TTITLE3=Disappear for Good
TTITLE4=Memphis Light
TTITLE5=House of the Rising Sun
TTITLE6=Spirit Will Never Get Old
TTITLE7=Party Time Blues
TTITLE8=Woman Needs a Man
TTITLE9=Can I Be What I Want
EXTD=
EXTT0=
EXTT1=
EXTT2=
EXTT3=
EXTT4=
EXTT5=
EXTT6=
EXTT7=
EXTT8=
EXTT9=
PLAYORDER=
